<svg width="191" height="48" viewBox="0 0 191 48" fill="none" xmlns="http://www.w3.org/2000/svg">
<path d="M44.25 30.5012H0.75002C0.336028 30.5012 0 30.8364 0 31.2511C0 39.9348 7.06503 47.0001 15.75 47.0001H29.25C37.9342 47.0001 45 39.9348 45 31.2511C45 30.8364 44.6647 30.5012 44.25 30.5012ZM29.25 45.5001H15.75C8.14422 45.5001 1.91096 39.511 1.51947 32.001H43.4804C43.089 39.511 36.8558 45.5001 29.25 45.5001Z" fill="#FFB84D"/>
<path d="M38.2529 12.5068C38.2529 12.4521 38.2522 12.3973 38.247 12.3141C38.1315 11.0707 37.2765 10.0492 36.1477 9.66601L36.9967 8.81707C38.469 7.37495 38.6168 5.06808 37.3282 3.4392C35.9482 1.76233 33.4612 1.52379 31.7849 2.90298C31.6896 2.98173 31.5974 3.06496 31.5051 3.15724L30.5827 4.0932C30.1957 2.97048 29.1719 2.12154 27.9105 2.00456C26.2492 1.91385 24.843 3.18871 24.7537 4.84009C24.7508 4.89485 24.75 4.9496 24.75 5.00357V6.15327C24.309 5.89751 23.7982 5.75055 23.253 5.74976C23.199 5.74976 23.1435 5.75126 23.0602 5.75574C21.4568 5.90498 20.223 7.28267 20.25 8.88V9.89997C19.8 9.63973 19.287 9.50024 18.7531 9.49945C18.6991 9.49945 18.6443 9.50095 18.5611 9.50543C16.9568 9.65467 15.7231 11.0324 15.7501 12.6298V23.7516C15.7501 24.1663 16.0861 24.5016 16.5001 24.5016H29.2501C30.9046 24.5016 32.2501 23.1561 32.2493 21.5032C32.2493 20.9573 32.103 20.445 31.8465 20.0034H32.8598C34.4708 20.0476 35.8485 18.7959 35.9993 17.1633C36.0315 16.5528 35.8785 15.9753 35.5891 15.4849C36.2625 15.4099 36.8858 15.1122 37.3718 14.6277C37.9386 14.0622 38.2522 13.3093 38.2529 12.5068ZM36.3126 13.5657C36.0292 13.8477 35.6534 14.003 35.2522 14.003C35.2514 14.003 35.2507 14.003 35.2499 14.003H32.9999C32.5851 14.003 32.2499 14.339 32.2499 14.753C32.2499 15.1669 32.5851 15.5029 32.9999 15.5029L33.0824 15.5052C33.9089 15.5494 34.545 16.2574 34.5029 17.0539C34.4265 17.8803 33.7252 18.52 32.8725 18.5027H29.25C28.8352 18.5027 28.5 18.8387 28.5 19.2527C28.5 19.6667 28.8352 20.0027 29.25 20.0027C30.0773 20.0027 30.75 20.6754 30.75 21.5026C30.75 22.3299 30.0773 23.0026 29.25 23.0026H17.2499V12.617C17.2357 11.7868 17.8732 11.0767 18.6704 11.0016L18.7522 10.9993C19.578 11 20.2491 11.672 20.2499 12.497V12.5022C20.2499 12.9162 20.5852 13.2522 20.9992 13.2522C21 13.2522 21 13.2522 21 13.2522C21.4139 13.2522 21.7492 12.917 21.75 12.503V12.5023V8.86725C21.7357 8.03704 22.3732 7.32688 23.1705 7.25182L23.2515 7.24953C24.078 7.25103 24.7493 7.92295 24.7501 8.74869V8.75317C24.7501 9.16714 25.0853 9.50315 25.4993 9.50315C25.5001 9.50315 25.5001 9.50315 25.5001 9.50315C25.9141 9.50315 26.2493 9.16793 26.2501 8.75396V8.75317V5.00348L26.2524 4.92025C26.2959 4.09451 26.9874 3.45862 27.8004 3.49984C28.6284 3.5771 29.2651 4.28726 29.2494 5.13171V5.75416C29.2494 6.05791 29.4332 6.33239 29.7151 6.44788C29.9949 6.56337 30.3204 6.49736 30.5334 6.27992L32.5681 4.21528C32.6235 4.16052 32.6806 4.10875 32.7398 4.06006C33.7778 3.20664 35.3161 3.35509 36.1621 4.38104C36.9631 5.39495 36.8708 6.84084 35.9423 7.7506L33.9698 9.72296C33.7554 9.93741 33.6909 10.2599 33.8071 10.5404C33.9226 10.8202 34.1971 11.0032 34.5 11.0032H35.1225C35.1383 11.0032 35.1495 11.0032 35.1623 11.0032C35.9813 11.0032 36.6772 11.6347 36.7507 12.4236L36.753 12.5061C36.7521 12.9065 36.5962 13.283 36.3126 13.5657Z" fill="#FFB84D"/>
<path d="M32.4703 6.7208L11.4707 27.7191L12.5313 28.7796L33.5309 7.78135L32.4703 6.7208Z" fill="#FFB84D"/>
<path d="M29.2485 8.00708H27.7485V11.7569H29.2485V8.00708Z" fill="#FFB84D"/>
<path d="M24.7485 11.7569H23.2484V16.2566H24.7485V11.7569Z" fill="#FFB84D"/>
<path d="M20.2484 15.4991H18.7484V20.7487H20.2484V15.4991Z" fill="#FFB84D"/>
<path d="M32.2484 11.0069H28.4984V12.5067H32.2484V11.0069Z" fill="#FFB84D"/>
<path d="M28.4985 15.4991H23.9984V16.9989H28.4985V15.4991Z" fill="#FFB84D"/>
<path d="M24.7484 19.9988H19.4984V21.4987H24.7484V19.9988Z" fill="#FFB84D"/>
<path d="M13.9987 5.46927C13.998 5.46777 13.9964 5.46628 13.9957 5.46478C12.9374 3.88011 10.7864 3.44962 9.20241 4.50783C9.15293 4.54008 9.10414 4.57454 9.04868 4.61585L8.77866 4.82133L8.51919 4.63457C7.14669 3.35444 4.98892 3.4062 3.68242 4.7621C3.04271 5.42506 2.69921 6.29799 2.71644 7.2197C2.73367 8.14141 3.10793 9.00081 3.77023 9.63977C3.96299 9.82575 4.17745 9.98923 4.40845 10.1257L5.03998 10.6192V11.0032C5.03998 13.0709 6.72224 14.753 8.79 14.753C10.8578 14.753 12.54 13.0701 12.5392 11.0025V10.6185L13.203 10.1003C14.6392 9.01056 14.9879 6.97598 13.9987 5.46927ZM12.2879 8.9123L11.3279 9.66227C11.1464 9.80404 11.0399 10.0223 11.0399 10.2533V11.0032C11.0399 12.2436 10.0304 13.2531 8.78991 13.2531C7.54943 13.2531 6.53994 12.2436 6.53994 11.0032V10.2533C6.53994 10.0223 6.4342 9.80404 6.2519 9.66227L5.2919 8.9123C5.26342 8.8898 5.23265 8.86959 5.20119 8.85157C5.0602 8.77132 4.92967 8.67385 4.81268 8.56056C4.43772 8.19907 4.22615 7.71312 4.21639 7.19263C4.20664 6.67214 4.40089 6.17872 4.76241 5.80369C5.14414 5.40774 5.65491 5.20823 6.16638 5.20823C6.65385 5.20823 7.14212 5.38893 7.52016 5.75421C7.54565 5.7782 7.57263 5.80149 7.6019 5.82241L8.35193 6.36241C8.61896 6.55516 8.98118 6.55067 9.24372 6.35116L10.0343 5.75649C10.4693 5.46549 10.9905 5.36353 11.5035 5.46478C12.015 5.56674 12.4568 5.86152 12.747 6.295C13.3035 7.14543 13.1055 8.29135 12.2879 8.9123Z" fill="#FFB84D"/>
<path d="M17.9985 2.74992H16.4984V4.24978H17.9985V2.74992Z" fill="#FFB84D"/>
<path d="M22.4984 26.7484H20.9984V28.2483H22.4984V26.7484Z" fill="#FFB84D"/>
<path d="M40.4999 6.50345V8.00339C41.3272 8.00339 42 8.67611 42 9.50325C42 10.3304 41.3272 11.0032 40.4999 11.0032V12.503C42.1544 12.503 43.4999 11.1576 43.4999 9.50325C43.4999 7.84888 42.1544 6.50345 40.4999 6.50345Z" fill="#FFB84D"/>
<path d="M2.99841 13.2567H1.49846V14.7566H2.99841V13.2567Z" fill="#FFB84D"/>
<path d="M1.49995 10.2569H0V11.7569H1.49995V10.2569Z" fill="#FFB84D"/>
<path d="M29.2499 26.0014C27.5954 26.0014 26.2499 27.3469 26.2499 29.0012H27.75C27.75 28.174 28.4227 27.5013 29.2499 27.5013C30.0772 27.5013 30.7499 28.174 30.7499 29.0012H32.2499C32.2499 27.3469 30.9044 26.0014 29.2499 26.0014Z" fill="#FFB84D"/>
<path d="M9.00003 19.2518H8.90554C8.57101 17.9597 7.39575 17.002 6.00004 17.002C4.60433 17.002 3.42827 17.9597 3.09453 19.2518H3.00004C1.34557 19.2518 4.57764e-05 20.5973 4.57764e-05 22.2516C4.57764e-05 23.906 1.34557 25.2514 3.00004 25.2514H9.00003C10.6545 25.2514 12 23.906 12 22.2516C12 20.5973 10.6545 19.2518 9.00003 19.2518ZM9.00003 23.7523H2.99995C2.17267 23.7523 1.49991 23.0796 1.49991 22.2524C1.49991 21.4252 2.17267 20.7525 2.99995 20.7525H3.74997C4.16397 20.7525 4.5 20.4165 4.5 20.0025C4.5 19.1753 5.17276 18.5026 6.00004 18.5026C6.82732 18.5026 7.50008 19.1754 7.50008 20.0025C7.50008 20.4165 7.83611 20.7525 8.2501 20.7525H9.00012C9.8274 20.7525 10.5002 21.4252 10.5002 22.2524C10.5 23.0796 9.82723 23.7523 9.00003 23.7523Z" fill="#FFB84D"/>
<path d="M7.49992 23.7515H4.49993C4.08594 23.7515 3.74991 24.0875 3.74991 24.5015V27.5013C3.74991 27.9161 4.08594 28.2513 4.49993 28.2513H7.49992C7.91391 28.2513 8.24993 27.9161 8.24993 27.5013V24.5015C8.24993 24.0875 7.91391 23.7515 7.49992 23.7515ZM6.7499 26.7513H5.24995V25.2515H6.74998V26.7513H6.7499Z" fill="#FFB84D"/>
<path d="M39.7499 21.5017C38.5094 21.5017 37.4999 22.5112 37.4999 23.7516C37.4999 24.992 38.5094 26.0014 39.7499 26.0014C40.9904 26.0014 41.9999 24.992 41.9999 23.7516C41.9999 22.5112 40.9904 21.5017 39.7499 21.5017ZM39.7499 24.5022C39.3359 24.5022 38.9999 24.1655 38.9999 23.7523C38.9999 23.339 39.3359 23.0023 39.7499 23.0023C40.1639 23.0023 40.4999 23.3383 40.4999 23.7523C40.4999 24.1663 40.1639 24.5022 39.7499 24.5022Z" fill="#FFB84D"/>
<path d="M39.7499 18.5019C36.8557 18.5019 34.4999 20.8568 34.4999 23.7516C34.4999 26.6463 36.8557 29.0012 39.7499 29.0012C42.6442 29.0012 44.9999 26.6463 44.9999 23.7516C44.9999 20.8568 42.6442 18.5019 39.7499 18.5019ZM39.7499 27.502C37.6821 27.502 35.9999 25.8192 35.9999 23.7523C35.9999 21.6846 37.6821 20.0025 39.7499 20.0025C41.8177 20.0025 43.4999 21.6846 43.4999 23.7523C43.4999 25.8199 41.8177 27.502 39.7499 27.502Z" fill="#FFB84D"/>
<path d="M57.8693 39V9.90909H63.1392V22.2244H76.6193V9.90909H81.9034V39H76.6193V26.642H63.1392V39H57.8693ZM87.4077 39V17.1818H92.5497V39H87.4077ZM89.9929 14.0852C89.1785 14.0852 88.4777 13.8153 87.8906 13.2756C87.3035 12.7263 87.0099 12.0682 87.0099 11.3011C87.0099 10.5246 87.3035 9.86648 87.8906 9.3267C88.4777 8.77746 89.1785 8.50284 89.9929 8.50284C90.8168 8.50284 91.5175 8.77746 92.0952 9.3267C92.6823 9.86648 92.9759 10.5246 92.9759 11.3011C92.9759 12.0682 92.6823 12.7263 92.0952 13.2756C91.5175 13.8153 90.8168 14.0852 89.9929 14.0852ZM98.0646 39V9.90909H116.701V14.3267H103.335V22.2244H115.423V26.642H103.335V39H98.0646ZM129.19 39.4261C127.06 39.4261 125.213 38.9574 123.651 38.0199C122.088 37.0824 120.876 35.7708 120.014 34.0852C119.162 32.3996 118.736 30.4299 118.736 28.1761C118.736 25.9223 119.162 23.9479 120.014 22.2528C120.876 20.5578 122.088 19.2415 123.651 18.304C125.213 17.3665 127.06 16.8977 129.19 16.8977C131.321 16.8977 133.168 17.3665 134.73 18.304C136.293 19.2415 137.5 20.5578 138.352 22.2528C139.214 23.9479 139.645 25.9223 139.645 28.1761C139.645 30.4299 139.214 32.3996 138.352 34.0852C137.5 35.7708 136.293 37.0824 134.73 38.0199C133.168 38.9574 131.321 39.4261 129.19 39.4261ZM129.219 35.3068C130.374 35.3068 131.34 34.9896 132.116 34.3551C132.893 33.7112 133.471 32.8494 133.849 31.7699C134.238 30.6903 134.432 29.4877 134.432 28.1619C134.432 26.8267 134.238 25.6193 133.849 24.5398C133.471 23.4508 132.893 22.5843 132.116 21.9403C131.34 21.2964 130.374 20.9744 129.219 20.9744C128.035 20.9744 127.05 21.2964 126.264 21.9403C125.488 22.5843 124.905 23.4508 124.517 24.5398C124.138 25.6193 123.949 26.8267 123.949 28.1619C123.949 29.4877 124.138 30.6903 124.517 31.7699C124.905 32.8494 125.488 33.7112 126.264 34.3551C127.05 34.9896 128.035 35.3068 129.219 35.3068ZM153.526 39.4261C151.396 39.4261 149.549 38.9574 147.987 38.0199C146.424 37.0824 145.212 35.7708 144.35 34.0852C143.498 32.3996 143.072 30.4299 143.072 28.1761C143.072 25.9223 143.498 23.9479 144.35 22.2528C145.212 20.5578 146.424 19.2415 147.987 18.304C149.549 17.3665 151.396 16.8977 153.526 16.8977C155.657 16.8977 157.504 17.3665 159.066 18.304C160.629 19.2415 161.836 20.5578 162.688 22.2528C163.55 23.9479 163.981 25.9223 163.981 28.1761C163.981 30.4299 163.55 32.3996 162.688 34.0852C161.836 35.7708 160.629 37.0824 159.066 38.0199C157.504 38.9574 155.657 39.4261 153.526 39.4261ZM153.555 35.3068C154.71 35.3068 155.676 34.9896 156.452 34.3551C157.229 33.7112 157.807 32.8494 158.185 31.7699C158.574 30.6903 158.768 29.4877 158.768 28.1619C158.768 26.8267 158.574 25.6193 158.185 24.5398C157.807 23.4508 157.229 22.5843 156.452 21.9403C155.676 21.2964 154.71 20.9744 153.555 20.9744C152.371 20.9744 151.386 21.2964 150.6 21.9403C149.824 22.5843 149.241 23.4508 148.853 24.5398C148.474 25.6193 148.285 26.8267 148.285 28.1619C148.285 29.4877 148.474 30.6903 148.853 31.7699C149.241 32.8494 149.824 33.7112 150.6 34.3551C151.386 34.9896 152.371 35.3068 153.555 35.3068ZM176.442 39.3835C174.728 39.3835 173.194 38.9432 171.839 38.0625C170.485 37.1818 169.415 35.9034 168.629 34.2273C167.843 32.5511 167.45 30.5152 167.45 28.1193C167.45 25.6951 167.848 23.6496 168.643 21.983C169.448 20.3068 170.533 19.0426 171.896 18.1903C173.26 17.3286 174.78 16.8977 176.456 16.8977C177.734 16.8977 178.786 17.1155 179.609 17.5511C180.433 17.9773 181.087 18.4934 181.57 19.0994C182.053 19.696 182.427 20.2595 182.692 20.7898H182.905V9.90909H188.061V39H183.004V35.5625H182.692C182.427 36.0928 182.043 36.6562 181.541 37.2528C181.039 37.84 180.376 38.3419 179.553 38.7585C178.729 39.1752 177.692 39.3835 176.442 39.3835ZM177.876 35.1648C178.965 35.1648 179.893 34.8712 180.661 34.2841C181.428 33.6875 182.01 32.8589 182.408 31.7983C182.805 30.7377 183.004 29.5019 183.004 28.0909C183.004 26.6799 182.805 25.4536 182.408 24.4119C182.019 23.3703 181.442 22.5606 180.675 21.983C179.917 21.4053 178.984 21.1165 177.876 21.1165C176.731 21.1165 175.774 21.4148 175.007 22.0114C174.24 22.608 173.662 23.4318 173.274 24.483C172.886 25.5341 172.692 26.7367 172.692 28.0909C172.692 29.4545 172.886 30.6714 173.274 31.7415C173.672 32.8021 174.254 33.6402 175.021 34.2557C175.798 34.8617 176.75 35.1648 177.876 35.1648Z" fill="#FAFAFA"/>
</svg>
